<?xml version="1.0" encoding="utf-8"?>
<!-- Generator: Adobe Illustrator 23.0.1, SVG Export Plug-In . SVG Version: 6.00 Build 0)  -->
<svg version="1.1" id="Livello_1" xmlns="http://www.w3.org/2000/svg" xmlns:xlink="http://www.w3.org/1999/xlink" x="0px" y="0px"
	 viewBox="0 0 203.9 30.8" style="enable-background:new 0 0 203.9 30.8;" xml:space="preserve">
<style type="text/css">
	.st0{fill:#1F1E21;}
	.st1{fill:#801854;}
</style>
<g>
	<path class="st0" d="M154.3,21.3c0,1.3-0.4,2.3-1.1,3c-0.7,0.7-1.7,1-3,1c-1.5,0-2.6-0.4-3.2-1.1c-0.6-0.7-1-1.8-0.9-3.3h1.7
		c0,0.5,0,0.9,0.1,1.3c0.1,0.4,0.2,0.7,0.4,1c0.2,0.3,0.5,0.5,0.8,0.6c0.3,0.2,0.8,0.2,1.3,0.2c0.8,0,1.4-0.2,1.8-0.6
		c0.4-0.4,0.6-1,0.6-1.8c0-0.6-0.2-1.1-0.5-1.5c-0.3-0.4-0.7-0.7-1.2-1c-0.5-0.3-1-0.6-1.5-0.8c-0.5-0.2-1-0.5-1.5-0.9
		c-0.5-0.3-0.8-0.8-1.2-1.2c-0.3-0.5-0.5-1.1-0.5-1.9c0-0.6,0.1-1.2,0.3-1.6c0.2-0.4,0.5-0.8,0.9-1.1c0.4-0.3,0.8-0.5,1.3-0.6
		c0.5-0.1,1.1-0.2,1.7-0.2c0.7,0,1.3,0.1,1.7,0.3c0.5,0.2,0.8,0.5,1.1,0.9c0.3,0.4,0.5,0.8,0.6,1.3c0.1,0.5,0.2,1,0.2,1.5h-1.6
		c0-0.9-0.2-1.6-0.5-2c-0.3-0.5-0.9-0.7-1.9-0.7c-0.6,0-1.1,0.2-1.5,0.5c-0.4,0.4-0.6,0.8-0.6,1.5c0,0.6,0.2,1,0.5,1.4
		c0.3,0.4,0.7,0.7,1.2,1c0.5,0.3,1,0.5,1.5,0.8c0.5,0.2,1,0.5,1.5,0.9c0.5,0.3,0.8,0.8,1.2,1.3C154.2,19.8,154.3,20.5,154.3,21.3z"
		/>
	<path class="st0" d="M157.2,24.9V5h1.6v7.7h0.1c0.4-0.6,0.9-1.1,1.4-1.4c0.5-0.4,1.2-0.6,1.9-0.6c0.9,0,1.5,0.1,2,0.4
		c0.5,0.3,0.9,0.6,1.1,1.1c0.3,0.4,0.4,0.9,0.5,1.4c0.1,0.5,0.1,1,0.1,1.5v9.8h-1.6v-9.7c0-0.4,0-0.8-0.1-1.2
		c-0.1-0.4-0.2-0.7-0.4-1c-0.2-0.3-0.5-0.5-0.8-0.7c-0.3-0.2-0.7-0.3-1.2-0.3c-0.4,0-0.7,0.1-1.1,0.2c-0.4,0.1-0.7,0.4-1,0.7
		c-0.3,0.3-0.5,0.7-0.7,1.3c-0.2,0.5-0.3,1.2-0.3,2v8.7H157.2z"/>
	<path class="st0" d="M173.9,25.2c-1.6,0-2.8-0.5-3.6-1.5c-0.8-1-1.2-2.4-1.2-4.2v-3c0-1.8,0.4-3.2,1.2-4.2c0.8-1,2-1.5,3.6-1.5
		c1.6,0,2.8,0.5,3.6,1.5c0.8,1,1.2,2.4,1.2,4.2v3c0,1.8-0.4,3.2-1.2,4.2C176.7,24.7,175.5,25.2,173.9,25.2z M173.9,12.1
		c-0.7,0-1.2,0.1-1.6,0.4c-0.4,0.3-0.7,0.7-0.9,1.2c-0.2,0.5-0.4,1.1-0.4,1.9c-0.1,0.7-0.1,1.5-0.1,2.4c0,0.9,0,1.7,0.1,2.5
		c0.1,0.7,0.2,1.3,0.4,1.9c0.2,0.5,0.5,0.9,0.9,1.2c0.4,0.3,1,0.4,1.6,0.4c0.7,0,1.2-0.1,1.6-0.4c0.4-0.3,0.7-0.7,1-1.2
		c0.2-0.5,0.4-1.1,0.4-1.9c0.1-0.7,0.1-1.5,0.1-2.5c0-0.9,0-1.7-0.1-2.4c-0.1-0.7-0.2-1.3-0.4-1.9c-0.2-0.5-0.5-0.9-1-1.2
		C175.1,12.2,174.6,12.1,173.9,12.1z"/>
	<path class="st0" d="M183.3,12.7L183.3,12.7c0.5-0.7,1-1.2,1.7-1.5c0.6-0.3,1.2-0.5,1.8-0.5c1.1,0,1.9,0.2,2.5,0.6
		c0.6,0.4,1,0.9,1.3,1.5c0.3,0.6,0.4,1.2,0.5,1.8c0,0.6,0.1,1.2,0.1,1.7v3.1c0,0.9-0.1,1.7-0.2,2.4c-0.2,0.7-0.4,1.3-0.8,1.8
		c-0.4,0.5-0.9,0.9-1.5,1.1c-0.6,0.3-1.4,0.4-2.2,0.4c-0.5,0-1-0.1-1.5-0.4c-0.5-0.3-1-0.7-1.4-1.4l-0.1,0v6.8h-1.7V11h1.6V12.7z
		 M183.4,19.2c0,0.8,0.1,1.5,0.2,2.1c0.2,0.6,0.4,1.1,0.7,1.5c0.3,0.4,0.6,0.7,0.9,0.9c0.3,0.2,0.7,0.3,1.1,0.3
		c0.7,0,1.2-0.1,1.6-0.4c0.4-0.3,0.7-0.7,0.9-1.2c0.2-0.5,0.4-1.1,0.4-1.9c0.1-0.7,0.1-1.5,0.1-2.5c0-0.9,0-1.7-0.1-2.4
		c-0.1-0.7-0.2-1.3-0.4-1.9c-0.2-0.5-0.5-0.9-0.9-1.2c-0.4-0.3-1-0.4-1.6-0.4c-0.3,0-0.6,0.1-0.9,0.2c-0.3,0.2-0.7,0.4-1,0.8
		c-0.3,0.4-0.6,0.8-0.8,1.4c-0.2,0.6-0.3,1.3-0.3,2.2V19.2z"/>
	<g>
		<g>
			<path class="st0" d="M198.6,12.8c-2.9,0-5.3-2.4-5.3-5.3c0-2.9,2.4-5.3,5.3-5.3c2.9,0,5.3,2.4,5.3,5.3
				C203.9,10.4,201.6,12.8,198.6,12.8z M198.6,3.2c-2.3,0-4.2,1.9-4.2,4.2c0,2.3,1.9,4.2,4.2,4.2c2.3,0,4.2-1.9,4.2-4.2
				C202.8,5.1,200.9,3.2,198.6,3.2z"/>
		</g>
		<g>
			<g>
				<path class="st0" d="M196.7,9.6V5.3h1.8c0.5,0,0.8,0,1,0.1c0.2,0.1,0.4,0.2,0.5,0.4c0.1,0.2,0.2,0.4,0.2,0.7
					c0,0.3-0.1,0.6-0.3,0.8c-0.2,0.2-0.5,0.3-0.9,0.4c0.2,0.1,0.3,0.2,0.5,0.4c0.1,0.1,0.3,0.4,0.5,0.7l0.5,0.8h-1l-0.6-0.9
					c-0.2-0.3-0.4-0.5-0.5-0.6c-0.1-0.1-0.2-0.1-0.3-0.2c-0.1,0-0.2,0-0.4,0h-0.2v1.8H196.7z M197.5,7.1h0.6c0.4,0,0.7,0,0.8-0.1
					c0.1,0,0.2-0.1,0.2-0.2c0.1-0.1,0.1-0.2,0.1-0.3c0-0.1,0-0.3-0.1-0.4c-0.1-0.1-0.2-0.1-0.3-0.2c-0.1,0-0.3,0-0.6,0h-0.7V7.1z"/>
			</g>
		</g>
	</g>
	<polyline class="st0" points="44.5,6.2 44.5,9.3 40.9,9.3 	"/>
	<path class="st0" d="M40.9,9.3c0,0,0-0.7,0-1.5s0.8-1.5,1.8-1.5c1,0,1.8,0,1.8,0"/>
	<rect x="40.9" y="11" class="st0" width="3.6" height="14.1"/>
	<path class="st0" d="M48.3,11h3.5v1.6h0.1c0.8-1.4,2.1-2,3.6-2c2.3,0,3.6,1.2,3.6,4v10.4h-3.6v-9.7c0-1.4-0.5-2-1.5-2
		c-1.2,0-1.9,0.8-1.9,2.3v9.3h-3.6V11z"/>
	<path class="st0" d="M69.4,11H73l-3.5,14.1h-4.2L61.6,11h3.8l2,10.1h0.1L69.4,11z"/>
	<path class="st0" d="M78.7,18.6v1.1c0,1.6,0.4,3.3,1.8,3.3c1.2,0,1.7-0.9,1.9-2.6h3.2c-0.1,3.3-1.7,5.1-5.1,5.1
		c-5.2,0-5.4-4-5.4-7.5c0-3.8,0.7-7.3,5.6-7.3c4.2,0,5.2,2.8,5.2,7.1v0.8H78.7z M82.4,16.5c-0.1-2.1-0.3-3.3-1.8-3.3
		c-1.4,0-1.9,1.5-1.9,2.8v0.5H82.4z"/>
	<path class="st0" d="M89,11h3.5v1.6h0.1c0.8-1.4,2.1-2,3.6-2c2.3,0,3.6,1.2,3.6,4v10.4h-3.6v-9.7c0-1.4-0.5-2-1.5-2
		c-1.2,0-1.9,0.8-1.9,2.3v9.3H89V11z"/>
	<path class="st0" d="M107.8,7v4h2.1v2.5h-2.1v7.6c0,1.1,0.2,1.5,1.3,1.5c0.3,0,0.6,0,0.8,0v2.5c-0.8,0.1-1.5,0.2-2.4,0.2
		c-2.8,0-3.3-0.9-3.3-3.7v-8.1h-1.8V11h1.8"/>
	<path class="st0" d="M104.2,11c0,0,0-0.9,0-2c0-1.1,0.8-2,1.8-2s1.8,0,1.8,0"/>
	<polyline class="st0" points="116.2,6.2 116.2,9.3 112.6,9.3 	"/>
	<path class="st0" d="M112.6,9.3c0,0,0-0.7,0-1.5s0.8-1.5,1.8-1.5c1,0,1.8,0,1.8,0"/>
	<rect x="112.6" y="11" class="st0" width="3.6" height="14.1"/>
	<path class="st0" d="M126.7,11h3.6l-3.5,14.1h-4.2L119,11h3.8l2,10.1h0.1L126.7,11z"/>
	<path class="st0" d="M132.5,15.4V15c0-3.2,2.2-4.3,4.9-4.3c4.3,0,5.1,1.8,5.1,4.3v7.4c0,1.3,0.1,1.9,0.4,2.7h-3.5
		c-0.2-0.4-0.3-1-0.4-1.5h-0.1c-0.8,1.5-1.9,1.8-3.6,1.8c-2.5,0-3.4-2.1-3.4-4c0-2.6,1.1-3.7,3.6-4.4l2-0.5c1.1-0.3,1.4-0.7,1.4-1.6
		c0-1.1-0.5-1.7-1.7-1.7c-1.1,0-1.7,0.7-1.7,1.8v0.4H132.5z M139.1,18.1c-0.5,0.4-1.1,0.6-1.5,0.7c-1.5,0.3-2,1-2,2.3
		c0,1.1,0.4,2,1.4,2c1,0,2.2-0.6,2.2-2.2V18.1z"/>
</g>
<path class="st1" d="M29.8,13.9L17.4,1.5C16.6,0.7,15,0,13.9,0H2.1C0.9,0,0,0.9,0,2.1v26.7c0,1.1,0.9,2.1,2.1,2.1h4V8.1V6.1h6.3
	v22.7c0,1.1,0.9,2.1,2.1,2.1h4.3h10h0.4L14.3,16V7.7l0-0.9l11.3,11.4l4.2,4.2c0.8,0.8,1.5,0.5,1.5-0.6v-2.4v-1.9
	C31.2,16.3,30.6,14.7,29.8,13.9z"/>
</svg>
